<svg width="41" height="47" viewBox="0 0 41 47" fill="none" xmlns="http://www.w3.org/2000/svg">
<path d="M8.61366 28.9252C8.61366 31.3027 6.67714 33.2452 4.30683 33.2452C1.93652 33.2452 0 31.3027 0 28.9252C0 26.5477 1.93652 24.6052 4.30683 24.6052H8.61366V28.9252ZM10.7845 28.9252C10.7845 26.5477 12.721 24.6052 15.0913 24.6052C17.4616 24.6052 19.3981 26.5477 19.3981 28.9252V39.7425C19.3981 42.1201 17.4616 44.0625 15.0913 44.0625C12.721 44.0625 10.7845 42.1201 10.7845 39.7425V28.9252ZM15.0913 11.5774C12.721 11.5774 10.7845 9.635 10.7845 7.25746C10.7845 4.87992 12.721 2.9375 15.0913 2.9375C17.4616 2.9375 19.3981 4.87992 19.3981 7.25746V11.5774H15.0913V11.5774ZM15.0913 13.7548C17.4616 13.7548 19.3981 15.6973 19.3981 18.0748C19.3981 20.4523 17.4616 22.3948 15.0913 22.3948H4.30683C1.93652 22.3948 0 20.4523 0 18.0748C0 15.6973 1.93652 13.7548 4.30683 13.7548H15.0913V13.7548ZM32.3863 18.0748C32.3863 15.6973 34.3229 13.7548 36.6932 13.7548C39.0635 13.7548 41 15.6973 41 18.0748C41 20.4523 39.0635 22.3948 36.6932 22.3948H32.3863V18.0748V18.0748ZM30.2155 18.0748C30.2155 20.4523 28.279 22.3948 25.9087 22.3948C23.5384 22.3948 21.6019 20.4523 21.6019 18.0748V7.25746C21.6019 4.87992 23.5384 2.9375 25.9087 2.9375C28.279 2.9375 30.2155 4.87992 30.2155 7.25746V18.0748V18.0748ZM25.9087 35.4226C28.279 35.4226 30.2155 37.365 30.2155 39.7425C30.2155 42.1201 28.279 44.0625 25.9087 44.0625C23.5384 44.0625 21.6019 42.1201 21.6019 39.7425V35.4226H25.9087ZM25.9087 33.2452C23.5384 33.2452 21.6019 31.3027 21.6019 28.9252C21.6019 26.5477 23.5384 24.6052 25.9087 24.6052H36.6932C39.0635 24.6052 41 26.5477 41 28.9252C41 31.3027 39.0635 33.2452 36.6932 33.2452H25.9087Z" fill="#949393"/>
</svg>
